<svg xmlns="http://www.w3.org/2000/svg" height="512" width="512"><path d="M32 368v32.414h32V480h32v-79.586h168V480h32v-16h120v16h32v-79.586h32V368zm264 32.414h120V448H296z" fill="#784421" paint-order="fill markers stroke"/><path fill="#deaa87" paint-order="fill markers stroke" d="M296 400h120v48H296z"/><circle r="12" cy="424" cx="356" fill="#502d16" paint-order="stroke fill markers"/><path d="M72 32c-8.864 0-16 7.136-16 16v272c0 8.864 7.136 16 16 16h168v16h-48a7.974 7.974 0 00-7.777 6.148H184V368h144v-9.852h-.223A7.974 7.974 0 00320 352h-48v-16h168c8.864 0 16-7.136 16-16V48c0-8.864-7.136-16-16-16z" fill="#374548" paint-order="fill markers stroke"/><rect width="112" height="80" x="328" y="240" rx="8" ry="8" fill="#ccc" paint-order="fill markers stroke"/><rect width="112" height="80" x="200" y="240" rx="8" ry="8" fill="#ffb380" paint-order="fill markers stroke"/><rect ry="8" rx="8" y="240" x="72" height="80" width="112" fill="#afe9dd" paint-order="fill markers stroke"/><rect width="112" height="80" x="328" y="144" rx="8" ry="8" fill="#fea" paint-order="fill markers stroke"/><rect width="112" height="80" x="200" y="144" rx="8" ry="8" fill="#c6e9af" paint-order="fill markers stroke"/><rect ry="8" rx="8" y="144" x="72" height="80" width="112" fill="#e9afdd" paint-order="fill markers stroke"/><rect ry="8" rx="8" y="48" x="328" height="80" width="112" fill="#caf" paint-order="fill markers stroke"/><rect ry="8" rx="8" y="48" x="200" height="80" width="112" fill="#afc6e9" paint-order="fill markers stroke"/><rect width="112" height="80" x="72" y="48" rx="8" ry="8" fill="#ffe6d5" paint-order="fill markers stroke"/></svg>